<svg xmlns="http://www.w3.org/2000/svg" width="387" height="99" viewBox="0 0 387 99" fill="none"><path d="M50.2802 16.4094C57.7023 21.1544 65.0656 33.8699 59.2239 38.1899C61.2312 43.4833 62.0224 53.2789 60.2579 56.9899C61.3546 59.3027 59.7703 64.1085 59.7703 64.1085C55.8458 64.8389 48.8663 64.7214 48.8663 64.7214" stroke="#FEFEFE" stroke-width="2.35" stroke-linecap="round" stroke-linejoin="round"></path><path d="M46.3244 44.0924C51.1928 51.8807 47.6032 58.3295 49.1248 66.4821C50.6464 74.6346 52.8339 72.6273 52.7732 77.1295C52.7125 81.6317 52.0447 84.7357 48.1515 83.639C44.2583 82.5423 42.3098 81.571 43.0403 79.503C43.7688 77.4331 43.4045 75.3651 43.1617 73.9041C42.9188 72.4432 44.8654 69.0377 44.8654 69.0377C40.9096 65.9944 36.4074 54.1935 37.5628 45.3693C32.0266 36.9739 31.6016 27.2997 34.216 22.1278C36.8323 16.9578 41.2738 15.4753 38.5968 8.85419" stroke="#FEFEFE" stroke-width="2.35" stroke-linecap="round" stroke-linejoin="round"></path><path d="M49.7926 21.5814C50.7659 28.6373 48.0888 32.5931 48.0888 32.5931C50.0961 35.8185 44.8654 46.9516 44.8654 46.9516M40.0577 18.5989C33.9125 27.2997 37.5628 45.3693 37.5628 45.3693M59.7703 64.1086C62.7528 69.7975 60.957 75.9134 57.7023 78.6511C58.7363 81.4183 57.3694 89.1459 57.3694 89.1459M39.6621 60.4171C35.4321 66.39 32.8178 68.46 38.5968 80.3843C38.8122 83.2748 38.871 89.1459 38.871 89.1459M50.8971 36.0084C52.4931 37.7181 55.2544 37.8786 55.2544 37.8786M52.6753 41.2333C51.6491 42.7392 49.207 43.3776 49.207 43.3776M48.9035 51.8435C50.2352 53.8959 53.9521 55.5389 53.9521 55.5389M61.2195 49.5621C60.0445 50.5647 58.7676 50.9074 58.7676 50.9074M60.7064 44.1336C59.6567 45.3399 59.0868 45.8863 59.0868 45.8863M55.8458 8.85419C56.2335 11.0025 54.1127 12.622 51.7392 11.1846C50.4173 11.2982 49.7358 11.7643 49.8239 12.3929" stroke="#FEFEFE" stroke-width="2.35" stroke-linecap="round" stroke-linejoin="round"></path><path d="M51.2437 17.0713C50.5975 15.4067 52.7751 11.6291 52.7751 11.6291" stroke="#FEFEFE" stroke-width="2.35" stroke-linecap="round" stroke-linejoin="round"></path><path d="M47 91.1041C70.2535 91.1041 89.1042 72.2535 89.1042 49C89.1042 25.7465 70.2535 6.89581 47 6.89581C23.7465 6.89581 4.89584 25.7465 4.89584 49C4.89584 72.2535 23.7465 91.1041 47 91.1041Z" stroke="#FEFEFE" stroke-width="2.35" stroke-linecap="round" stroke-linejoin="round"></path><path d="M131.176 44.4563C131.176 44.549 131.139 44.6324 131.065 44.7065C131.009 44.7621 130.935 44.7899 130.842 44.7899H121.754C121.661 44.7899 121.615 44.8362 121.615 44.9289V49.2371C121.615 49.3297 121.661 49.376 121.754 49.376H127.729C127.822 49.376 127.896 49.4131 127.952 49.4872C128.026 49.5428 128.063 49.6169 128.063 49.7096V52.4057C128.063 52.4983 128.026 52.5817 127.952 52.6558C127.896 52.7114 127.822 52.7392 127.729 52.7392H121.754C121.661 52.7392 121.615 52.7855 121.615 52.8782V60.5496C121.615 60.6422 121.578 60.7256 121.503 60.7997C121.448 60.8553 121.374 60.8831 121.281 60.8831H118.029C117.936 60.8831 117.853 60.8553 117.779 60.7997C117.723 60.7256 117.695 60.6422 117.695 60.5496V41.7602C117.695 41.6676 117.723 41.5935 117.779 41.5379C117.853 41.4638 117.936 41.4267 118.029 41.4267H130.842C130.935 41.4267 131.009 41.4638 131.065 41.5379C131.139 41.5935 131.176 41.6676 131.176 41.7602V44.4563ZM143.446 60.8831C143.261 60.8831 143.14 60.7905 143.085 60.6052L142.251 57.8813C142.214 57.8072 142.167 57.7701 142.112 57.7701H135.274C135.219 57.7701 135.172 57.8072 135.135 57.8813L134.329 60.6052C134.274 60.7905 134.153 60.8831 133.968 60.8831H130.438C130.327 60.8831 130.243 60.8553 130.188 60.7997C130.132 60.7256 130.123 60.6237 130.16 60.494L136.164 41.7047C136.219 41.5194 136.34 41.4267 136.525 41.4267H140.889C141.074 41.4267 141.195 41.5194 141.25 41.7047L147.254 60.494C147.272 60.531 147.282 60.5774 147.282 60.633C147.282 60.7997 147.18 60.8831 146.976 60.8831H143.446ZM136.136 54.5737C136.117 54.6849 136.154 54.7405 136.247 54.7405H141.139C141.25 54.7405 141.287 54.6849 141.25 54.5737L138.749 46.3186C138.73 46.2445 138.702 46.2167 138.665 46.2352C138.628 46.2352 138.6 46.263 138.582 46.3186L136.136 54.5737ZM160.398 60.8831C160.213 60.8831 160.083 60.7997 160.009 60.633L156.534 52.9338C156.497 52.8597 156.442 52.8226 156.368 52.8226H153.783C153.69 52.8226 153.644 52.8689 153.644 52.9616V60.5496C153.644 60.6422 153.607 60.7256 153.533 60.7997C153.477 60.8553 153.403 60.8831 153.31 60.8831H150.058C149.966 60.8831 149.882 60.8553 149.808 60.7997C149.753 60.7256 149.725 60.6422 149.725 60.5496V41.7602C149.725 41.6676 149.753 41.5935 149.808 41.5379C149.882 41.4638 149.966 41.4267 150.058 41.4267H158.008C159.194 41.4267 160.231 41.6676 161.121 42.1494C162.029 42.6312 162.723 43.3168 163.205 44.2062C163.706 45.0956 163.956 46.124 163.956 47.2914C163.956 48.5515 163.641 49.6355 163.011 50.5434C162.381 51.4329 161.501 52.0629 160.37 52.4335C160.278 52.4705 160.25 52.5354 160.287 52.628L164.067 60.494C164.104 60.5681 164.122 60.6237 164.122 60.6608C164.122 60.809 164.021 60.8831 163.817 60.8831H160.398ZM153.783 44.7899C153.69 44.7899 153.644 44.8362 153.644 44.9289V49.6818C153.644 49.7744 153.69 49.8208 153.783 49.8208H157.424C158.202 49.8208 158.832 49.5891 159.314 49.1259C159.814 48.6626 160.064 48.0604 160.064 47.3192C160.064 46.578 159.814 45.9758 159.314 45.5126C158.832 45.0308 158.202 44.7899 157.424 44.7899H153.783ZM179.306 41.6491C179.398 41.5008 179.528 41.4267 179.695 41.4267H182.947C183.039 41.4267 183.114 41.4638 183.169 41.5379C183.243 41.5935 183.28 41.6676 183.28 41.7602V60.5496C183.28 60.6422 183.243 60.7256 183.169 60.7997C183.114 60.8553 183.039 60.8831 182.947 60.8831H179.695C179.602 60.8831 179.519 60.8553 179.445 60.7997C179.389 60.7256 179.361 60.6422 179.361 60.5496V48.292C179.361 48.2179 179.343 48.1809 179.306 48.1809C179.269 48.1809 179.232 48.2087 179.194 48.2642L176.248 52.8782C176.156 53.0264 176.026 53.1006 175.859 53.1006H174.219C174.052 53.1006 173.923 53.0264 173.83 52.8782L170.884 48.2642C170.847 48.2087 170.81 48.1901 170.773 48.2087C170.736 48.2087 170.717 48.2457 170.717 48.3198V60.5496C170.717 60.6422 170.68 60.7256 170.606 60.7997C170.55 60.8553 170.476 60.8831 170.383 60.8831H167.131C167.039 60.8831 166.955 60.8553 166.881 60.7997C166.826 60.7256 166.798 60.6422 166.798 60.5496V41.7602C166.798 41.6676 166.826 41.5935 166.881 41.5379C166.955 41.4638 167.039 41.4267 167.131 41.4267H170.383C170.55 41.4267 170.68 41.5008 170.773 41.6491L174.942 48.1253C174.997 48.2364 175.053 48.2364 175.109 48.1253L179.306 41.6491ZM199.036 60.8831C198.85 60.8831 198.73 60.7905 198.674 60.6052L197.84 57.8813C197.803 57.8072 197.757 57.7701 197.702 57.7701H190.864C190.808 57.7701 190.762 57.8072 190.725 57.8813L189.919 60.6052C189.863 60.7905 189.743 60.8831 189.558 60.8831H186.028C185.916 60.8831 185.833 60.8553 185.778 60.7997C185.722 60.7256 185.713 60.6237 185.75 60.494L191.753 41.7047C191.809 41.5194 191.929 41.4267 192.115 41.4267H196.479C196.664 41.4267 196.784 41.5194 196.84 41.7047L202.844 60.494C202.862 60.531 202.871 60.5774 202.871 60.633C202.871 60.7997 202.769 60.8831 202.566 60.8831H199.036ZM191.726 54.5737C191.707 54.6849 191.744 54.7405 191.837 54.7405H196.729C196.84 54.7405 196.877 54.6849 196.84 54.5737L194.338 46.3186C194.32 46.2445 194.292 46.2167 194.255 46.2352C194.218 46.2352 194.19 46.263 194.172 46.3186L191.726 54.5737ZM211.555 61.1055C210.11 61.1055 208.84 60.8275 207.747 60.2716C206.654 59.6972 205.811 58.9004 205.218 57.8813C204.625 56.8621 204.328 55.6855 204.328 54.3513V47.9307C204.328 46.5966 204.625 45.4199 205.218 44.4008C205.811 43.3816 206.654 42.5941 207.747 42.0382C208.84 41.4823 210.11 41.2043 211.555 41.2043C212.982 41.2043 214.232 41.473 215.307 42.0104C216.4 42.5292 217.244 43.2797 217.837 44.2618C218.448 45.2253 218.754 46.3464 218.754 47.625C218.754 47.7917 218.643 47.8936 218.42 47.9307L215.168 48.1253H215.113C214.927 48.1253 214.835 48.0234 214.835 47.8195C214.835 46.8374 214.529 46.0499 213.917 45.457C213.324 44.864 212.537 44.5675 211.555 44.5675C210.554 44.5675 209.748 44.864 209.137 45.457C208.544 46.0499 208.247 46.8374 208.247 47.8195V54.5181C208.247 55.4816 208.544 56.2599 209.137 56.8529C209.748 57.4458 210.554 57.7423 211.555 57.7423C212.537 57.7423 213.324 57.4458 213.917 56.8529C214.529 56.2599 214.835 55.4816 214.835 54.5181C214.835 54.3143 214.946 54.2123 215.168 54.2123L218.42 54.3513C218.513 54.3513 218.587 54.3791 218.643 54.4347C218.717 54.4903 218.754 54.5552 218.754 54.6293C218.754 55.9078 218.448 57.0382 217.837 58.0202C217.244 59.0023 216.4 59.7621 215.307 60.2994C214.232 60.8368 212.982 61.1055 211.555 61.1055ZM228.549 61.1889C227.103 61.1889 225.825 60.8924 224.713 60.2994C223.62 59.7065 222.767 58.8819 222.156 57.8257C221.544 56.7509 221.239 55.5187 221.239 54.129V48.1809C221.239 46.8096 221.544 45.5959 222.156 44.5397C222.767 43.4835 223.62 42.6682 224.713 42.0938C225.825 41.5008 227.103 41.2043 228.549 41.2043C230.012 41.2043 231.291 41.5008 232.384 42.0938C233.496 42.6682 234.358 43.4835 234.969 44.5397C235.581 45.5959 235.886 46.8096 235.886 48.1809V54.129C235.886 55.5187 235.581 56.7509 234.969 57.8257C234.358 58.9004 233.496 59.7343 232.384 60.3272C231.291 60.9016 230.012 61.1889 228.549 61.1889ZM228.549 57.8257C229.568 57.8257 230.392 57.5014 231.022 56.8529C231.652 56.2043 231.967 55.3427 231.967 54.2679V48.1531C231.967 47.0783 231.652 46.2167 231.022 45.5681C230.411 44.9011 229.586 44.5675 228.549 44.5675C227.529 44.5675 226.705 44.9011 226.075 45.5681C225.463 46.2167 225.158 47.0783 225.158 48.1531V54.2679C225.158 55.3427 225.463 56.2043 226.075 56.8529C226.705 57.5014 227.529 57.8257 228.549 57.8257ZM239.224 60.8831C239.132 60.8831 239.048 60.8553 238.974 60.7997C238.919 60.7256 238.891 60.6422 238.891 60.5496V41.7602C238.891 41.6676 238.919 41.5935 238.974 41.5379C239.048 41.4638 239.132 41.4267 239.224 41.4267H242.476C242.569 41.4267 242.643 41.4638 242.699 41.5379C242.773 41.5935 242.81 41.6676 242.81 41.7602V57.381C242.81 57.4736 242.856 57.5199 242.949 57.5199H252.038C252.131 57.5199 252.205 57.557 252.26 57.6311C252.334 57.6867 252.371 57.7608 252.371 57.8535V60.5496C252.371 60.6422 252.334 60.7256 252.26 60.7997C252.205 60.8553 252.131 60.8831 252.038 60.8831H239.224ZM261.501 61.1889C260.055 61.1889 258.777 60.8924 257.665 60.2994C256.572 59.7065 255.719 58.8819 255.108 57.8257C254.496 56.7509 254.191 55.5187 254.191 54.129V48.1809C254.191 46.8096 254.496 45.5959 255.108 44.5397C255.719 43.4835 256.572 42.6682 257.665 42.0938C258.777 41.5008 260.055 41.2043 261.501 41.2043C262.965 41.2043 264.243 41.5008 265.336 42.0938C266.448 42.6682 267.31 43.4835 267.921 44.5397C268.533 45.5959 268.839 46.8096 268.839 48.1809V54.129C268.839 55.5187 268.533 56.7509 267.921 57.8257C267.31 58.9004 266.448 59.7343 265.336 60.3272C264.243 60.9016 262.965 61.1889 261.501 61.1889ZM261.501 57.8257C262.52 57.8257 263.344 57.5014 263.974 56.8529C264.604 56.2043 264.92 55.3427 264.92 54.2679V48.1531C264.92 47.0783 264.604 46.2167 263.974 45.5681C263.363 44.9011 262.538 44.5675 261.501 44.5675C260.482 44.5675 259.657 44.9011 259.027 45.5681C258.416 46.2167 258.11 47.0783 258.11 48.1531V54.2679C258.11 55.3427 258.416 56.2043 259.027 56.8529C259.657 57.5014 260.482 57.8257 261.501 57.8257ZM278.681 61.1055C277.254 61.1055 275.994 60.8183 274.9 60.2438C273.807 59.6694 272.955 58.8726 272.343 57.8535C271.75 56.8158 271.454 55.6206 271.454 54.2679V48.0419C271.454 46.6892 271.75 45.494 272.343 44.4563C272.955 43.4187 273.807 42.6219 274.9 42.066C275.994 41.4916 277.254 41.2043 278.681 41.2043C280.089 41.2043 281.33 41.4823 282.405 42.0382C283.498 42.5941 284.341 43.3538 284.934 44.3174C285.546 45.2624 285.852 46.3186 285.852 47.486V47.6806C285.852 47.7732 285.815 47.8566 285.74 47.9307C285.685 47.9863 285.611 48.0141 285.518 48.0141H282.266C282.173 48.0141 282.09 47.9863 282.016 47.9307C281.96 47.8566 281.933 47.7732 281.933 47.6806V47.5972C281.933 46.7448 281.636 46.0314 281.043 45.457C280.45 44.864 279.663 44.5675 278.681 44.5675C277.68 44.5675 276.874 44.8825 276.262 45.5126C275.669 46.124 275.373 46.9301 275.373 47.9307V54.3791C275.373 55.3797 275.697 56.195 276.346 56.8251C276.994 57.4366 277.819 57.7423 278.82 57.7423C279.783 57.7423 280.552 57.4921 281.127 56.9918C281.701 56.473 281.988 55.7596 281.988 54.8516V53.6009C281.988 53.5082 281.942 53.4619 281.849 53.4619H278.736C278.644 53.4619 278.56 53.4341 278.486 53.3785C278.43 53.3044 278.403 53.221 278.403 53.1283V50.5712C278.403 50.4786 278.43 50.4044 278.486 50.3489C278.56 50.2747 278.644 50.2377 278.736 50.2377H285.518C285.611 50.2377 285.685 50.2747 285.74 50.3489C285.815 50.4044 285.852 50.4786 285.852 50.5712V54.2401C285.852 55.6484 285.555 56.8714 284.962 57.9091C284.369 58.9467 283.526 59.7435 282.433 60.2994C281.358 60.8368 280.107 61.1055 278.681 61.1055ZM289.195 60.8831C289.103 60.8831 289.019 60.8553 288.945 60.7997C288.89 60.7256 288.862 60.6422 288.862 60.5496V41.7602C288.862 41.6676 288.89 41.5935 288.945 41.5379C289.019 41.4638 289.103 41.4267 289.195 41.4267H292.447C292.54 41.4267 292.614 41.4638 292.67 41.5379C292.744 41.5935 292.781 41.6676 292.781 41.7602V60.5496C292.781 60.6422 292.744 60.7256 292.67 60.7997C292.614 60.8553 292.54 60.8831 292.447 60.8831H289.195ZM308.532 60.8831C308.347 60.8831 308.227 60.7905 308.171 60.6052L307.337 57.8813C307.3 57.8072 307.254 57.7701 307.198 57.7701H300.361C300.305 57.7701 300.259 57.8072 300.222 57.8813L299.416 60.6052C299.36 60.7905 299.24 60.8831 299.054 60.8831H295.524C295.413 60.8831 295.33 60.8553 295.274 60.7997C295.219 60.7256 295.209 60.6237 295.246 60.494L301.25 41.7047C301.306 41.5194 301.426 41.4267 301.611 41.4267H305.975C306.16 41.4267 306.281 41.5194 306.336 41.7047L312.34 60.494C312.359 60.531 312.368 60.5774 312.368 60.633C312.368 60.7997 312.266 60.8831 312.062 60.8831H308.532ZM301.222 54.5737C301.204 54.6849 301.241 54.7405 301.333 54.7405H306.225C306.336 54.7405 306.374 54.6849 306.336 54.5737L303.835 46.3186C303.816 46.2445 303.789 46.2167 303.752 46.2352C303.714 46.2352 303.687 46.263 303.668 46.3186L301.222 54.5737ZM118.029 93.8831C117.936 93.8831 117.853 93.8553 117.779 93.7997C117.723 93.7256 117.695 93.6422 117.695 93.5496V74.7602C117.695 74.6676 117.723 74.5935 117.779 74.5379C117.853 74.4638 117.936 74.4267 118.029 74.4267H124.978C126.367 74.4267 127.581 74.6769 128.619 75.1772C129.675 75.6589 130.49 76.3446 131.065 77.234C131.639 78.1234 131.926 79.1518 131.926 80.3192V87.9906C131.926 89.158 131.639 90.1864 131.065 91.0758C130.49 91.9653 129.675 92.6601 128.619 93.1605C127.581 93.6422 126.367 93.8831 124.978 93.8831H118.029ZM121.615 90.381C121.615 90.4736 121.661 90.5199 121.754 90.5199H125.117C125.969 90.5199 126.655 90.2327 127.174 89.6583C127.711 89.0839 127.989 88.3149 128.007 87.3513V80.9585C128.007 79.9949 127.739 79.226 127.201 78.6515C126.682 78.0771 125.978 77.7899 125.089 77.7899H121.754C121.661 77.7899 121.615 77.8362 121.615 77.9289V90.381ZM141.771 94.1889C140.326 94.1889 139.047 93.8924 137.935 93.2994C136.842 92.7065 135.99 91.8819 135.378 90.8257C134.767 89.7509 134.461 88.5187 134.461 87.129V81.1809C134.461 79.8096 134.767 78.5959 135.378 77.5397C135.99 76.4835 136.842 75.6682 137.935 75.0938C139.047 74.5008 140.326 74.2043 141.771 74.2043C143.235 74.2043 144.513 74.5008 145.607 75.0938C146.719 75.6682 147.58 76.4835 148.192 77.5397C148.803 78.5959 149.109 79.8096 149.109 81.1809V87.129C149.109 88.5187 148.803 89.7509 148.192 90.8257C147.58 91.9004 146.719 92.7343 145.607 93.3272C144.513 93.9016 143.235 94.1889 141.771 94.1889ZM141.771 90.8257C142.79 90.8257 143.615 90.5014 144.245 89.8529C144.875 89.2043 145.19 88.3427 145.19 87.2679V81.1531C145.19 80.0783 144.875 79.2167 144.245 78.5681C143.633 77.9011 142.809 77.5675 141.771 77.5675C140.752 77.5675 139.927 77.9011 139.297 78.5681C138.686 79.2167 138.38 80.0783 138.38 81.1531V87.2679C138.38 88.3427 138.686 89.2043 139.297 89.8529C139.927 90.5014 140.752 90.8257 141.771 90.8257ZM171.186 77.4563C171.186 77.549 171.149 77.6324 171.075 77.7065C171.019 77.7621 170.945 77.7899 170.853 77.7899H161.736C161.643 77.7899 161.597 77.8362 161.597 77.9289V82.2371C161.597 82.3297 161.643 82.376 161.736 82.376H167.712C167.804 82.376 167.878 82.4131 167.934 82.4872C168.008 82.5428 168.045 82.6169 168.045 82.7096V85.4057C168.045 85.4983 168.008 85.5817 167.934 85.6558C167.878 85.7114 167.804 85.7392 167.712 85.7392H161.736C161.643 85.7392 161.597 85.7855 161.597 85.8782V90.381C161.597 90.4736 161.643 90.5199 161.736 90.5199H170.853C170.945 90.5199 171.019 90.557 171.075 90.6311C171.149 90.6867 171.186 90.7608 171.186 90.8535V93.5496C171.186 93.6422 171.149 93.7256 171.075 93.7997C171.019 93.8553 170.945 93.8831 170.853 93.8831H158.011C157.919 93.8831 157.835 93.8553 157.761 93.7997C157.706 93.7256 157.678 93.6422 157.678 93.5496V74.7602C157.678 74.6676 157.706 74.5935 157.761 74.5379C157.835 74.4638 157.919 74.4267 158.011 74.4267H170.853C170.945 74.4267 171.019 74.4638 171.075 74.5379C171.149 74.5935 171.186 74.6676 171.186 74.7602V77.4563ZM186.417 74.6491C186.51 74.5008 186.64 74.4267 186.806 74.4267H190.058C190.151 74.4267 190.225 74.4638 190.281 74.5379C190.355 74.5935 190.392 74.6676 190.392 74.7602V93.5496C190.392 93.6422 190.355 93.7256 190.281 93.7997C190.225 93.8553 190.151 93.8831 190.058 93.8831H186.806C186.714 93.8831 186.63 93.8553 186.556 93.7997C186.501 93.7256 186.473 93.6422 186.473 93.5496V81.292C186.473 81.2179 186.454 81.1809 186.417 81.1809C186.38 81.1809 186.343 81.2087 186.306 81.2642L183.36 85.8782C183.267 86.0264 183.137 86.1006 182.971 86.1006H181.331C181.164 86.1006 181.034 86.0264 180.942 85.8782L177.995 81.2642C177.958 81.2087 177.921 81.1901 177.884 81.2087C177.847 81.2087 177.829 81.2457 177.829 81.3198V93.5496C177.829 93.6422 177.792 93.7256 177.717 93.7997C177.662 93.8553 177.588 93.8831 177.495 93.8831H174.243C174.15 93.8831 174.067 93.8553 173.993 93.7997C173.937 93.7256 173.91 93.6422 173.91 93.5496V74.7602C173.91 74.6676 173.937 74.5935 173.993 74.5379C174.067 74.4638 174.15 74.4267 174.243 74.4267H177.495C177.662 74.4267 177.792 74.5008 177.884 74.6491L182.053 81.1253C182.109 81.2364 182.165 81.2364 182.22 81.1253L186.417 74.6491ZM206.147 93.8831C205.962 93.8831 205.842 93.7905 205.786 93.6052L204.952 90.8813C204.915 90.8072 204.869 90.7701 204.813 90.7701H197.976C197.92 90.7701 197.874 90.8072 197.837 90.8813L197.031 93.6052C196.975 93.7905 196.854 93.8831 196.669 93.8831H193.139C193.028 93.8831 192.945 93.8553 192.889 93.7997C192.833 93.7256 192.824 93.6237 192.861 93.494L198.865 74.7047C198.921 74.5194 199.041 74.4267 199.226 74.4267H203.59C203.775 74.4267 203.896 74.5194 203.951 74.7047L209.955 93.494C209.974 93.531 209.983 93.5774 209.983 93.633C209.983 93.7997 209.881 93.8831 209.677 93.8831H206.147ZM198.837 87.5737C198.819 87.6849 198.856 87.7405 198.948 87.7405H203.84C203.951 87.7405 203.989 87.6849 203.951 87.5737L201.45 79.3186C201.431 79.2445 201.404 79.2167 201.367 79.2352C201.329 79.2352 201.302 79.263 201.283 79.3186L198.837 87.5737ZM218.666 94.1055C217.24 94.1055 215.98 93.8183 214.886 93.2438C213.793 92.6694 212.941 91.8726 212.329 90.8535C211.736 89.8158 211.44 88.6206 211.44 87.2679V81.0419C211.44 79.6892 211.736 78.494 212.329 77.4563C212.941 76.4187 213.793 75.6219 214.886 75.066C215.98 74.4916 217.24 74.2043 218.666 74.2043C220.075 74.2043 221.316 74.4823 222.391 75.0382C223.484 75.5941 224.327 76.3538 224.92 77.3174C225.532 78.2624 225.838 79.3186 225.838 80.486V80.6806C225.838 80.7732 225.8 80.8566 225.726 80.9307C225.671 80.9863 225.597 81.0141 225.504 81.0141H222.252C222.159 81.0141 222.076 80.9863 222.002 80.9307C221.946 80.8566 221.918 80.7732 221.918 80.6806V80.5972C221.918 79.7448 221.622 79.0314 221.029 78.457C220.436 77.864 219.649 77.5675 218.666 77.5675C217.666 77.5675 216.86 77.8825 216.248 78.5126C215.655 79.124 215.359 79.9301 215.359 80.9307V87.3791C215.359 88.3797 215.683 89.195 216.332 89.8251C216.98 90.4366 217.805 90.7423 218.805 90.7423C219.769 90.7423 220.538 90.4921 221.112 89.9918C221.687 89.473 221.974 88.7596 221.974 87.8516V86.6009C221.974 86.5082 221.928 86.4619 221.835 86.4619H218.722C218.629 86.4619 218.546 86.4341 218.472 86.3785C218.416 86.3044 218.389 86.221 218.389 86.1283V83.5712C218.389 83.4786 218.416 83.4044 218.472 83.3489C218.546 83.2747 218.629 83.2377 218.722 83.2377H225.504C225.597 83.2377 225.671 83.2747 225.726 83.3489C225.8 83.4044 225.838 83.4786 225.838 83.5712V87.2401C225.838 88.6484 225.541 89.8714 224.948 90.9091C224.355 91.9467 223.512 92.7435 222.419 93.2994C221.344 93.8368 220.093 94.1055 218.666 94.1055ZM239.521 93.8831C239.336 93.8831 239.206 93.7997 239.132 93.633L235.658 85.9338C235.621 85.8597 235.565 85.8226 235.491 85.8226H232.906C232.813 85.8226 232.767 85.8689 232.767 85.9616V93.5496C232.767 93.6422 232.73 93.7256 232.656 93.7997C232.6 93.8553 232.526 93.8831 232.433 93.8831H229.181C229.089 93.8831 229.005 93.8553 228.931 93.7997C228.876 93.7256 228.848 93.6422 228.848 93.5496V74.7602C228.848 74.6676 228.876 74.5935 228.931 74.5379C229.005 74.4638 229.089 74.4267 229.181 74.4267H237.131C238.317 74.4267 239.354 74.6676 240.244 75.1494C241.152 75.6312 241.847 76.3168 242.328 77.2062C242.829 78.0956 243.079 79.124 243.079 80.2914C243.079 81.5515 242.764 82.6355 242.134 83.5434C241.504 84.4329 240.624 85.0629 239.493 85.4335C239.401 85.4705 239.373 85.5354 239.41 85.628L243.19 93.494C243.227 93.5681 243.246 93.6237 243.246 93.6608C243.246 93.809 243.144 93.8831 242.94 93.8831H239.521ZM232.906 77.7899C232.813 77.7899 232.767 77.8362 232.767 77.9289V82.6818C232.767 82.7744 232.813 82.8208 232.906 82.8208H236.547C237.325 82.8208 237.955 82.5891 238.437 82.1259C238.937 81.6626 239.188 81.0604 239.188 80.3192C239.188 79.578 238.937 78.9758 238.437 78.5126C237.955 78.0308 237.325 77.7899 236.547 77.7899H232.906ZM259.429 77.4563C259.429 77.549 259.392 77.6324 259.318 77.7065C259.263 77.7621 259.188 77.7899 259.096 77.7899H249.979C249.886 77.7899 249.84 77.8362 249.84 77.9289V82.2371C249.84 82.3297 249.886 82.376 249.979 82.376H255.955C256.048 82.376 256.122 82.4131 256.177 82.4872C256.251 82.5428 256.289 82.6169 256.289 82.7096V85.4057C256.289 85.4983 256.251 85.5817 256.177 85.6558C256.122 85.7114 256.048 85.7392 255.955 85.7392H249.979C249.886 85.7392 249.84 85.7855 249.84 85.8782V90.381C249.84 90.4736 249.886 90.5199 249.979 90.5199H259.096C259.188 90.5199 259.263 90.557 259.318 90.6311C259.392 90.6867 259.429 90.7608 259.429 90.8535V93.5496C259.429 93.6422 259.392 93.7256 259.318 93.7997C259.263 93.8553 259.188 93.8831 259.096 93.8831H246.255C246.162 93.8831 246.079 93.8553 246.004 93.7997C245.949 93.7256 245.921 93.6422 245.921 93.5496V74.7602C245.921 74.6676 245.949 74.5935 246.004 74.5379C246.079 74.4638 246.162 74.4267 246.255 74.4267H259.096C259.188 74.4267 259.263 74.4638 259.318 74.5379C259.392 74.5935 259.429 74.6676 259.429 74.7602V77.4563ZM268.99 94.1055C267.545 94.1055 266.276 93.8275 265.182 93.2716C264.089 92.6972 263.246 91.9004 262.653 90.8813C262.06 89.8621 261.764 88.6855 261.764 87.3513V80.9307C261.764 79.5966 262.06 78.4199 262.653 77.4008C263.246 76.3816 264.089 75.5941 265.182 75.0382C266.276 74.4823 267.545 74.2043 268.99 74.2043C270.417 74.2043 271.668 74.473 272.743 75.0104C273.836 75.5292 274.679 76.2797 275.272 77.2618C275.883 78.2253 276.189 79.3464 276.189 80.625C276.189 80.7917 276.078 80.8936 275.856 80.9307L272.604 81.1253H272.548C272.363 81.1253 272.27 81.0234 272.27 80.8195C272.27 79.8374 271.964 79.0499 271.353 78.457C270.76 77.864 269.972 77.5675 268.99 77.5675C267.99 77.5675 267.184 77.864 266.572 78.457C265.979 79.0499 265.683 79.8374 265.683 80.8195V87.5181C265.683 88.4816 265.979 89.2599 266.572 89.8529C267.184 90.4458 267.99 90.7423 268.99 90.7423C269.972 90.7423 270.76 90.4458 271.353 89.8529C271.964 89.2599 272.27 88.4816 272.27 87.5181C272.27 87.3143 272.381 87.2123 272.604 87.2123L275.856 87.3513C275.948 87.3513 276.022 87.3791 276.078 87.4347C276.152 87.4903 276.189 87.5552 276.189 87.6293C276.189 88.9078 275.883 90.0382 275.272 91.0202C274.679 92.0023 273.836 92.7621 272.743 93.2994C271.668 93.8368 270.417 94.1055 268.99 94.1055ZM279.397 93.8831C279.304 93.8831 279.221 93.8553 279.147 93.7997C279.091 93.7256 279.063 93.6422 279.063 93.5496V74.7602C279.063 74.6676 279.091 74.5935 279.147 74.5379C279.221 74.4638 279.304 74.4267 279.397 74.4267H282.649C282.741 74.4267 282.816 74.4638 282.871 74.5379C282.945 74.5935 282.982 74.6676 282.982 74.7602V93.5496C282.982 93.6422 282.945 93.7256 282.871 93.7997C282.816 93.8553 282.741 93.8831 282.649 93.8831H279.397ZM298.872 74.6491C298.965 74.5008 299.095 74.4267 299.262 74.4267H302.514C302.606 74.4267 302.68 74.4638 302.736 74.5379C302.81 74.5935 302.847 74.6676 302.847 74.7602V93.5496C302.847 93.6422 302.81 93.7256 302.736 93.7997C302.68 93.8553 302.606 93.8831 302.514 93.8831H299.262C299.169 93.8831 299.086 93.8553 299.011 93.7997C298.956 93.7256 298.928 93.6422 298.928 93.5496V81.292C298.928 81.2179 298.91 81.1809 298.872 81.1809C298.835 81.1809 298.798 81.2087 298.761 81.2642L295.815 85.8782C295.722 86.0264 295.593 86.1006 295.426 86.1006H293.786C293.619 86.1006 293.49 86.0264 293.397 85.8782L290.451 81.2642C290.414 81.2087 290.376 81.1901 290.339 81.2087C290.302 81.2087 290.284 81.2457 290.284 81.3198V93.5496C290.284 93.6422 290.247 93.7256 290.173 93.7997C290.117 93.8553 290.043 93.8831 289.95 93.8831H286.698C286.606 93.8831 286.522 93.8553 286.448 93.7997C286.393 93.7256 286.365 93.6422 286.365 93.5496V74.7602C286.365 74.6676 286.393 74.5935 286.448 74.5379C286.522 74.4638 286.606 74.4267 286.698 74.4267H289.95C290.117 74.4267 290.247 74.5008 290.339 74.6491L294.509 81.1253C294.564 81.2364 294.62 81.2364 294.675 81.1253L298.872 74.6491ZM319.742 77.4563C319.742 77.549 319.705 77.6324 319.631 77.7065C319.575 77.7621 319.501 77.7899 319.409 77.7899H310.292C310.199 77.7899 310.153 77.8362 310.153 77.9289V82.2371C310.153 82.3297 310.199 82.376 310.292 82.376H316.268C316.36 82.376 316.434 82.4131 316.49 82.4872C316.564 82.5428 316.601 82.6169 316.601 82.7096V85.4057C316.601 85.4983 316.564 85.5817 316.49 85.6558C316.434 85.7114 316.36 85.7392 316.268 85.7392H310.292C310.199 85.7392 310.153 85.7855 310.153 85.8782V90.381C310.153 90.4736 310.199 90.5199 310.292 90.5199H319.409C319.501 90.5199 319.575 90.557 319.631 90.6311C319.705 90.6867 319.742 90.7608 319.742 90.8535V93.5496C319.742 93.6422 319.705 93.7256 319.631 93.7997C319.575 93.8553 319.501 93.8831 319.409 93.8831H306.567C306.475 93.8831 306.391 93.8553 306.317 93.7997C306.262 93.7256 306.234 93.6422 306.234 93.5496V74.7602C306.234 74.6676 306.262 74.5935 306.317 74.5379C306.391 74.4638 306.475 74.4267 306.567 74.4267H319.409C319.501 74.4267 319.575 74.4638 319.631 74.5379C319.705 74.5935 319.742 74.6676 319.742 74.7602V77.4563ZM333.639 74.7602C333.639 74.6676 333.667 74.5935 333.722 74.5379C333.797 74.4638 333.88 74.4267 333.973 74.4267H337.225C337.317 74.4267 337.391 74.4638 337.447 74.5379C337.521 74.5935 337.558 74.6676 337.558 74.7602V93.5496C337.558 93.6422 337.521 93.7256 337.447 93.7997C337.391 93.8553 337.317 93.8831 337.225 93.8831H334.084C333.898 93.8831 333.769 93.809 333.695 93.6608L326.496 81.7646C326.459 81.709 326.422 81.6904 326.385 81.709C326.348 81.709 326.329 81.746 326.329 81.8201L326.385 93.5496C326.385 93.6422 326.348 93.7256 326.273 93.7997C326.218 93.8553 326.144 93.8831 326.051 93.8831H322.799C322.706 93.8831 322.623 93.8553 322.549 93.7997C322.493 93.7256 322.466 93.6422 322.466 93.5496V74.7602C322.466 74.6676 322.493 74.5935 322.549 74.5379C322.623 74.4638 322.706 74.4267 322.799 74.4267H325.94C326.125 74.4267 326.255 74.5008 326.329 74.6491L333.5 86.4897C333.537 86.5453 333.574 86.5731 333.611 86.5731C333.648 86.5545 333.667 86.5082 333.667 86.4341L333.639 74.7602ZM354.375 74.4267C354.468 74.4267 354.542 74.4638 354.598 74.5379C354.672 74.5935 354.709 74.6676 354.709 74.7602V77.4841C354.709 77.5768 354.672 77.6602 354.598 77.7343C354.542 77.7899 354.468 77.8177 354.375 77.8177H349.4C349.307 77.8177 349.261 77.864 349.261 77.9567V93.5496C349.261 93.6422 349.224 93.7256 349.15 93.7997C349.094 93.8553 349.02 93.8831 348.927 93.8831H345.675C345.583 93.8831 345.499 93.8553 345.425 93.7997C345.37 93.7256 345.342 93.6422 345.342 93.5496V77.9567C345.342 77.864 345.295 77.8177 345.203 77.8177H340.367C340.274 77.8177 340.19 77.7899 340.116 77.7343C340.061 77.6602 340.033 77.5768 340.033 77.4841V74.7602C340.033 74.6676 340.061 74.5935 340.116 74.5379C340.19 74.4638 340.274 74.4267 340.367 74.4267H354.375ZM363.343 94.1889C361.898 94.1889 360.619 93.8924 359.507 93.2994C358.414 92.7065 357.562 91.8819 356.95 90.8257C356.339 89.7509 356.033 88.5187 356.033 87.129V81.1809C356.033 79.8096 356.339 78.5959 356.95 77.5397C357.562 76.4835 358.414 75.6682 359.507 75.0938C360.619 74.5008 361.898 74.2043 363.343 74.2043C364.807 74.2043 366.085 74.5008 367.179 75.0938C368.29 75.6682 369.152 76.4835 369.764 77.5397C370.375 78.5959 370.681 79.8096 370.681 81.1809V87.129C370.681 88.5187 370.375 89.7509 369.764 90.8257C369.152 91.9004 368.29 92.7343 367.179 93.3272C366.085 93.9016 364.807 94.1889 363.343 94.1889ZM363.343 90.8257C364.362 90.8257 365.187 90.5014 365.817 89.8529C366.447 89.2043 366.762 88.3427 366.762 87.2679V81.1531C366.762 80.0783 366.447 79.2167 365.817 78.5681C365.205 77.9011 364.381 77.5675 363.343 77.5675C362.324 77.5675 361.499 77.9011 360.869 78.5681C360.258 79.2167 359.952 80.0783 359.952 81.1531V87.2679C359.952 88.3427 360.258 89.2043 360.869 89.8529C361.499 90.5014 362.324 90.8257 363.343 90.8257Z" fill="white"></path><rect x="116" width="203.442" height="26.7208" rx="5" fill="white"></rect><path d="M132.425 8.66041C132.478 8.66041 132.521 8.68175 132.553 8.72441C132.595 8.75641 132.617 8.79908 132.617 8.85241V10.4204C132.617 10.4737 132.595 10.5217 132.553 10.5644C132.521 10.5964 132.478 10.6124 132.425 10.6124H129.561C129.507 10.6124 129.481 10.6391 129.481 10.6924V19.6684C129.481 19.7217 129.459 19.7697 129.417 19.8124C129.385 19.8444 129.342 19.8604 129.289 19.8604H127.417C127.363 19.8604 127.315 19.8444 127.273 19.8124C127.241 19.7697 127.225 19.7217 127.225 19.6684V10.6924C127.225 10.6391 127.198 10.6124 127.145 10.6124H124.361C124.307 10.6124 124.259 10.5964 124.217 10.5644C124.185 10.5217 124.169 10.4737 124.169 10.4204V8.85241C124.169 8.79908 124.185 8.75641 124.217 8.72441C124.259 8.68175 124.307 8.66041 124.361 8.66041H132.425ZM140.2 19.8604C140.094 19.8604 140.019 19.8124 139.976 19.7164L137.976 15.2844C137.955 15.2417 137.923 15.2204 137.88 15.2204H136.392C136.339 15.2204 136.312 15.2471 136.312 15.3004V19.6684C136.312 19.7217 136.291 19.7697 136.248 19.8124C136.216 19.8444 136.174 19.8604 136.12 19.8604H134.248C134.195 19.8604 134.147 19.8444 134.104 19.8124C134.072 19.7697 134.056 19.7217 134.056 19.6684V8.85241C134.056 8.79908 134.072 8.75641 134.104 8.72441C134.147 8.68175 134.195 8.66041 134.248 8.66041H138.824C139.507 8.66041 140.104 8.79908 140.616 9.07641C141.139 9.35375 141.539 9.74841 141.816 10.2604C142.104 10.7724 142.248 11.3644 142.248 12.0364C142.248 12.7617 142.067 13.3857 141.704 13.9084C141.342 14.4204 140.835 14.7831 140.184 14.9964C140.131 15.0177 140.115 15.0551 140.136 15.1084L142.312 19.6364C142.334 19.6791 142.344 19.7111 142.344 19.7324C142.344 19.8177 142.286 19.8604 142.168 19.8604H140.2ZM136.392 10.5964C136.339 10.5964 136.312 10.6231 136.312 10.6764V13.4124C136.312 13.4657 136.339 13.4924 136.392 13.4924H138.488C138.936 13.4924 139.299 13.3591 139.576 13.0924C139.864 12.8257 140.008 12.4791 140.008 12.0524C140.008 11.6257 139.864 11.2791 139.576 11.0124C139.299 10.7351 138.936 10.5964 138.488 10.5964H136.392ZM151.66 10.4044C151.66 10.4577 151.639 10.5057 151.596 10.5484C151.564 10.5804 151.522 10.5964 151.468 10.5964H146.22C146.167 10.5964 146.14 10.6231 146.14 10.6764V13.1564C146.14 13.2097 146.167 13.2364 146.22 13.2364H149.66C149.714 13.2364 149.756 13.2577 149.788 13.3004C149.831 13.3324 149.852 13.3751 149.852 13.4284V14.9804C149.852 15.0337 149.831 15.0817 149.788 15.1244C149.756 15.1564 149.714 15.1724 149.66 15.1724H146.22C146.167 15.1724 146.14 15.1991 146.14 15.2524V17.8444C146.14 17.8977 146.167 17.9244 146.22 17.9244H151.468C151.522 17.9244 151.564 17.9457 151.596 17.9884C151.639 18.0204 151.66 18.0631 151.66 18.1164V19.6684C151.66 19.7217 151.639 19.7697 151.596 19.8124C151.564 19.8444 151.522 19.8604 151.468 19.8604H144.076C144.023 19.8604 143.975 19.8444 143.932 19.8124C143.9 19.7697 143.884 19.7217 143.884 19.6684V8.85241C143.884 8.79908 143.9 8.75641 143.932 8.72441C143.975 8.68175 144.023 8.66041 144.076 8.66041H151.468C151.522 8.66041 151.564 8.68175 151.596 8.72441C151.639 8.75641 151.66 8.79908 151.66 8.85241V10.4044ZM153.42 19.8604C153.367 19.8604 153.319 19.8444 153.276 19.8124C153.244 19.7697 153.228 19.7217 153.228 19.6684V8.85241C153.228 8.79908 153.244 8.75641 153.276 8.72441C153.319 8.68175 153.367 8.66041 153.42 8.66041H155.292C155.345 8.66041 155.388 8.68175 155.42 8.72441C155.463 8.75641 155.484 8.79908 155.484 8.85241V19.6684C155.484 19.7217 155.463 19.7697 155.42 19.8124C155.388 19.8444 155.345 19.8604 155.292 19.8604H153.42ZM163.863 8.85241C163.863 8.79908 163.879 8.75641 163.911 8.72441C163.954 8.68175 164.002 8.66041 164.055 8.66041H165.927C165.981 8.66041 166.023 8.68175 166.055 8.72441C166.098 8.75641 166.119 8.79908 166.119 8.85241V19.6684C166.119 19.7217 166.098 19.7697 166.055 19.8124C166.023 19.8444 165.981 19.8604 165.927 19.8604H164.119C164.013 19.8604 163.938 19.8177 163.895 19.7324L159.751 12.8844C159.73 12.8524 159.709 12.8417 159.687 12.8524C159.666 12.8524 159.655 12.8737 159.655 12.9164L159.687 19.6684C159.687 19.7217 159.666 19.7697 159.623 19.8124C159.591 19.8444 159.549 19.8604 159.495 19.8604H157.623C157.57 19.8604 157.522 19.8444 157.479 19.8124C157.447 19.7697 157.431 19.7217 157.431 19.6684V8.85241C157.431 8.79908 157.447 8.75641 157.479 8.72441C157.522 8.68175 157.57 8.66041 157.623 8.66041H159.431C159.538 8.66041 159.613 8.70308 159.655 8.78841L163.783 15.6044C163.805 15.6364 163.826 15.6524 163.847 15.6524C163.869 15.6417 163.879 15.6151 163.879 15.5724L163.863 8.85241ZM175.192 19.8604C175.085 19.8604 175.016 19.8071 174.984 19.7004L174.504 18.1324C174.482 18.0897 174.456 18.0684 174.424 18.0684H170.488C170.456 18.0684 170.429 18.0897 170.408 18.1324L169.944 19.7004C169.912 19.8071 169.842 19.8604 169.736 19.8604H167.704C167.64 19.8604 167.592 19.8444 167.56 19.8124C167.528 19.7697 167.522 19.7111 167.544 19.6364L171 8.82041C171.032 8.71375 171.101 8.66041 171.208 8.66041H173.72C173.826 8.66041 173.896 8.71375 173.928 8.82041L177.384 19.6364C177.394 19.6577 177.4 19.6844 177.4 19.7164C177.4 19.8124 177.341 19.8604 177.224 19.8604H175.192ZM170.984 16.2284C170.973 16.2924 170.994 16.3244 171.048 16.3244H173.864C173.928 16.3244 173.949 16.2924 173.928 16.2284L172.488 11.4764C172.477 11.4337 172.461 11.4177 172.44 11.4284C172.418 11.4284 172.402 11.4444 172.392 11.4764L170.984 16.2284ZM186.006 8.78841C186.06 8.70308 186.134 8.66041 186.23 8.66041H188.102C188.156 8.66041 188.198 8.68175 188.23 8.72441C188.273 8.75641 188.294 8.79908 188.294 8.85241V19.6684C188.294 19.7217 188.273 19.7697 188.23 19.8124C188.198 19.8444 188.156 19.8604 188.102 19.8604H186.23C186.177 19.8604 186.129 19.8444 186.086 19.8124C186.054 19.7697 186.038 19.7217 186.038 19.6684V12.6124C186.038 12.5697 186.028 12.5484 186.006 12.5484C185.985 12.5484 185.964 12.5644 185.942 12.5964L184.246 15.2524C184.193 15.3377 184.118 15.3804 184.022 15.3804H183.078C182.982 15.3804 182.908 15.3377 182.854 15.2524L181.158 12.5964C181.137 12.5644 181.116 12.5537 181.094 12.5644C181.073 12.5644 181.062 12.5857 181.062 12.6284V19.6684C181.062 19.7217 181.041 19.7697 180.998 19.8124C180.966 19.8444 180.924 19.8604 180.87 19.8604H178.998C178.945 19.8604 178.897 19.8444 178.854 19.8124C178.822 19.7697 178.806 19.7217 178.806 19.6684V8.85241C178.806 8.79908 178.822 8.75641 178.854 8.72441C178.897 8.68175 178.945 8.66041 178.998 8.66041H180.87C180.966 8.66041 181.041 8.70308 181.094 8.78841L183.494 12.5164C183.526 12.5804 183.558 12.5804 183.59 12.5164L186.006 8.78841ZM198.02 10.4044C198.02 10.4577 197.998 10.5057 197.956 10.5484C197.924 10.5804 197.881 10.5964 197.828 10.5964H192.58C192.526 10.5964 192.5 10.6231 192.5 10.6764V13.1564C192.5 13.2097 192.526 13.2364 192.58 13.2364H196.02C196.073 13.2364 196.116 13.2577 196.148 13.3004C196.19 13.3324 196.212 13.3751 196.212 13.4284V14.9804C196.212 15.0337 196.19 15.0817 196.148 15.1244C196.116 15.1564 196.073 15.1724 196.02 15.1724H192.58C192.526 15.1724 192.5 15.1991 192.5 15.2524V17.8444C192.5 17.8977 192.526 17.9244 192.58 17.9244H197.828C197.881 17.9244 197.924 17.9457 197.956 17.9884C197.998 18.0204 198.02 18.0631 198.02 18.1164V19.6684C198.02 19.7217 197.998 19.7697 197.956 19.8124C197.924 19.8444 197.881 19.8604 197.828 19.8604H190.436C190.382 19.8604 190.334 19.8444 190.292 19.8124C190.26 19.7697 190.244 19.7217 190.244 19.6684V8.85241C190.244 8.79908 190.26 8.75641 190.292 8.72441C190.334 8.68175 190.382 8.66041 190.436 8.66041H197.828C197.881 8.66041 197.924 8.68175 197.956 8.72441C197.998 8.75641 198.02 8.79908 198.02 8.85241V10.4044ZM206.019 8.85241C206.019 8.79908 206.035 8.75641 206.067 8.72441C206.11 8.68175 206.158 8.66041 206.211 8.66041H208.083C208.137 8.66041 208.179 8.68175 208.211 8.72441C208.254 8.75641 208.275 8.79908 208.275 8.85241V19.6684C208.275 19.7217 208.254 19.7697 208.211 19.8124C208.179 19.8444 208.137 19.8604 208.083 19.8604H206.275C206.169 19.8604 206.094 19.8177 206.051 19.7324L201.907 12.8844C201.886 12.8524 201.865 12.8417 201.843 12.8524C201.822 12.8524 201.811 12.8737 201.811 12.9164L201.843 19.6684C201.843 19.7217 201.822 19.7697 201.779 19.8124C201.747 19.8444 201.705 19.8604 201.651 19.8604H199.779C199.726 19.8604 199.678 19.8444 199.635 19.8124C199.603 19.7697 199.587 19.7217 199.587 19.6684V8.85241C199.587 8.79908 199.603 8.75641 199.635 8.72441C199.678 8.68175 199.726 8.66041 199.779 8.66041H201.587C201.694 8.66041 201.769 8.70308 201.811 8.78841L205.939 15.6044C205.961 15.6364 205.982 15.6524 206.003 15.6524C206.025 15.6417 206.035 15.6151 206.035 15.5724L206.019 8.85241ZM217.956 8.66041C218.009 8.66041 218.052 8.68175 218.084 8.72441C218.127 8.75641 218.148 8.79908 218.148 8.85241V10.4204C218.148 10.4737 218.127 10.5217 218.084 10.5644C218.052 10.5964 218.009 10.6124 217.956 10.6124H215.092C215.039 10.6124 215.012 10.6391 215.012 10.6924V19.6684C215.012 19.7217 214.991 19.7697 214.948 19.8124C214.916 19.8444 214.873 19.8604 214.82 19.8604H212.948C212.895 19.8604 212.847 19.8444 212.804 19.8124C212.772 19.7697 212.756 19.7217 212.756 19.6684V10.6924C212.756 10.6391 212.729 10.6124 212.676 10.6124H209.892C209.839 10.6124 209.791 10.5964 209.748 10.5644C209.716 10.5217 209.7 10.4737 209.7 10.4204V8.85241C209.7 8.79908 209.716 8.75641 209.748 8.72441C209.791 8.68175 209.839 8.66041 209.892 8.66041H217.956ZM223.118 20.0364C222.286 20.0364 221.55 19.8657 220.91 19.5244C220.281 19.1831 219.79 18.7084 219.438 18.1004C219.086 17.4817 218.91 16.7724 218.91 15.9724V12.5484C218.91 11.7591 219.086 11.0604 219.438 10.4524C219.79 9.84441 220.281 9.37508 220.91 9.04441C221.55 8.70308 222.286 8.53241 223.118 8.53241C223.961 8.53241 224.697 8.70308 225.326 9.04441C225.966 9.37508 226.462 9.84441 226.814 10.4524C227.166 11.0604 227.342 11.7591 227.342 12.5484V15.9724C227.342 16.7724 227.166 17.4817 226.814 18.1004C226.462 18.7191 225.966 19.1991 225.326 19.5404C224.697 19.8711 223.961 20.0364 223.118 20.0364ZM223.118 18.1004C223.705 18.1004 224.18 17.9137 224.542 17.5404C224.905 17.1671 225.086 16.6711 225.086 16.0524V12.5324C225.086 11.9137 224.905 11.4177 224.542 11.0444C224.19 10.6604 223.716 10.4684 223.118 10.4684C222.532 10.4684 222.057 10.6604 221.694 11.0444C221.342 11.4177 221.166 11.9137 221.166 12.5324V16.0524C221.166 16.6711 221.342 17.1671 221.694 17.5404C222.057 17.9137 222.532 18.1004 223.118 18.1004ZM239.395 19.8604C239.288 19.8604 239.219 19.8071 239.187 19.7004L238.707 18.1324C238.686 18.0897 238.659 18.0684 238.627 18.0684H234.691C234.659 18.0684 234.632 18.0897 234.611 18.1324L234.147 19.7004C234.115 19.8071 234.046 19.8604 233.939 19.8604H231.907C231.843 19.8604 231.795 19.8444 231.763 19.8124C231.731 19.7697 231.726 19.7111 231.747 19.6364L235.203 8.82041C235.235 8.71375 235.304 8.66041 235.411 8.66041H237.923C238.03 8.66041 238.099 8.71375 238.131 8.82041L241.587 19.6364C241.598 19.6577 241.603 19.6844 241.603 19.7164C241.603 19.8124 241.544 19.8604 241.427 19.8604H239.395ZM235.187 16.2284C235.176 16.2924 235.198 16.3244 235.251 16.3244H238.067C238.131 16.3244 238.152 16.2924 238.131 16.2284L236.691 11.4764C236.68 11.4337 236.664 11.4177 236.643 11.4284C236.622 11.4284 236.606 11.4444 236.595 11.4764L235.187 16.2284ZM245.688 19.8604C245.582 19.8604 245.512 19.8071 245.48 19.7004L242.184 8.88441L242.168 8.82041C242.168 8.71375 242.227 8.66041 242.344 8.66041H244.36C244.478 8.66041 244.552 8.71375 244.584 8.82041L246.712 16.6284C246.723 16.6604 246.739 16.6764 246.76 16.6764C246.782 16.6764 246.798 16.6604 246.808 16.6284L248.904 8.82041C248.936 8.71375 249.011 8.66041 249.128 8.66041H251.096C251.16 8.66041 251.208 8.68175 251.24 8.72441C251.272 8.76708 251.278 8.82041 251.256 8.88441L247.912 19.7004C247.88 19.8071 247.811 19.8604 247.704 19.8604H245.688ZM258.176 19.8604C258.07 19.8604 258 19.8071 257.968 19.7004L257.488 18.1324C257.467 18.0897 257.44 18.0684 257.408 18.0684H253.472C253.44 18.0684 253.414 18.0897 253.392 18.1324L252.928 19.7004C252.896 19.8071 252.827 19.8604 252.72 19.8604H250.688C250.624 19.8604 250.576 19.8444 250.544 19.8124C250.512 19.7697 250.507 19.7111 250.528 19.6364L253.984 8.82041C254.016 8.71375 254.086 8.66041 254.192 8.66041H256.704C256.811 8.66041 256.88 8.71375 256.912 8.82041L260.368 19.6364C260.379 19.6577 260.384 19.6844 260.384 19.7164C260.384 19.8124 260.326 19.8604 260.208 19.8604H258.176ZM253.968 16.2284C253.958 16.2924 253.979 16.3244 254.032 16.3244H256.848C256.912 16.3244 256.934 16.2924 256.912 16.2284L255.472 11.4764C255.462 11.4337 255.446 11.4177 255.424 11.4284C255.403 11.4284 255.387 11.4444 255.376 11.4764L253.968 16.2284ZM268.223 8.85241C268.223 8.79908 268.239 8.75641 268.271 8.72441C268.313 8.68175 268.361 8.66041 268.415 8.66041H270.287C270.34 8.66041 270.383 8.68175 270.415 8.72441C270.457 8.75641 270.479 8.79908 270.479 8.85241V19.6684C270.479 19.7217 270.457 19.7697 270.415 19.8124C270.383 19.8444 270.34 19.8604 270.287 19.8604H268.479C268.372 19.8604 268.297 19.8177 268.255 19.7324L264.111 12.8844C264.089 12.8524 264.068 12.8417 264.047 12.8524C264.025 12.8524 264.015 12.8737 264.015 12.9164L264.047 19.6684C264.047 19.7217 264.025 19.7697 263.983 19.8124C263.951 19.8444 263.908 19.8604 263.855 19.8604H261.983C261.929 19.8604 261.881 19.8444 261.839 19.8124C261.807 19.7697 261.791 19.7217 261.791 19.6684V8.85241C261.791 8.79908 261.807 8.75641 261.839 8.72441C261.881 8.68175 261.929 8.66041 261.983 8.66041H263.791C263.897 8.66041 263.972 8.70308 264.015 8.78841L268.143 15.6044C268.164 15.6364 268.185 15.6524 268.207 15.6524C268.228 15.6417 268.239 15.6151 268.239 15.5724L268.223 8.85241ZM280.511 12.3084C280.511 12.3511 280.447 12.3831 280.319 12.4044L278.447 12.5164H278.415C278.309 12.5164 278.255 12.4577 278.255 12.3404C278.255 11.7751 278.079 11.3217 277.727 10.9804C277.386 10.6391 276.933 10.4684 276.367 10.4684C275.791 10.4684 275.327 10.6391 274.975 10.9804C274.634 11.3217 274.463 11.7751 274.463 12.3404V16.1964C274.463 16.7511 274.634 17.1991 274.975 17.5404C275.327 17.8817 275.791 18.0524 276.367 18.0524C276.933 18.0524 277.386 17.8817 277.727 17.5404C278.079 17.1991 278.255 16.7511 278.255 16.1964C278.255 16.0791 278.319 16.0204 278.447 16.0204L280.319 16.1004C280.373 16.1004 280.415 16.1164 280.447 16.1484C280.49 16.1804 280.511 16.2177 280.511 16.2604C280.511 17.2844 280.186 18.1324 279.535 18.8044C278.885 19.4657 278.021 19.8497 276.943 19.9564C276.879 19.9777 276.869 20.0151 276.911 20.0684C277.349 20.4951 277.567 20.9484 277.567 21.4284C277.567 21.5564 277.551 21.6844 277.519 21.8124C277.423 22.1751 277.237 22.4364 276.959 22.5964C276.682 22.7564 276.362 22.8364 275.999 22.8364C275.658 22.8364 275.333 22.7777 275.023 22.6604C274.906 22.6284 274.858 22.5537 274.879 22.4364L274.991 21.6364C275.002 21.4977 275.082 21.4551 275.231 21.5084C275.349 21.5404 275.45 21.5564 275.535 21.5564C275.695 21.5564 275.823 21.5137 275.919 21.4284C276.026 21.3537 276.079 21.2311 276.079 21.0604C276.079 20.7084 275.791 20.3191 275.215 19.8924C275.194 19.8711 275.173 19.8604 275.151 19.8604C275.141 19.8497 275.13 19.8444 275.119 19.8444C274.213 19.6311 273.498 19.1937 272.975 18.5324C272.463 17.8604 272.207 17.0497 272.207 16.1004V12.4044C272.207 11.6364 272.378 10.9591 272.719 10.3724C273.061 9.78575 273.546 9.33241 274.175 9.01241C274.805 8.69241 275.535 8.53241 276.367 8.53241C277.189 8.53241 277.909 8.68708 278.527 8.99641C279.157 9.29508 279.642 9.72708 279.983 10.2924C280.335 10.8471 280.511 11.4924 280.511 12.2284V12.3084ZM289.036 19.8604C288.929 19.8604 288.86 19.8071 288.828 19.7004L288.348 18.1324C288.326 18.0897 288.3 18.0684 288.268 18.0684H284.332C284.3 18.0684 284.273 18.0897 284.252 18.1324L283.788 19.7004C283.756 19.8071 283.686 19.8604 283.58 19.8604H281.548C281.484 19.8604 281.436 19.8444 281.404 19.8124C281.372 19.7697 281.366 19.7111 281.388 19.6364L284.844 8.82041C284.876 8.71375 284.945 8.66041 285.052 8.66041H287.564C287.67 8.66041 287.74 8.71375 287.772 8.82041L291.228 19.6364C291.238 19.6577 291.244 19.6844 291.244 19.7164C291.244 19.8124 291.185 19.8604 291.068 19.8604H289.036ZM284.828 16.2284C284.817 16.2924 284.838 16.3244 284.892 16.3244H287.708C287.772 16.3244 287.793 16.2924 287.772 16.2284L286.332 11.4764C286.321 11.4337 286.305 11.4177 286.284 11.4284C286.262 11.4284 286.246 11.4444 286.236 11.4764L284.828 16.2284ZM292.842 19.8604C292.789 19.8604 292.741 19.8444 292.698 19.8124C292.666 19.7697 292.65 19.7217 292.65 19.6684V8.85241C292.65 8.79908 292.666 8.75641 292.698 8.72441C292.741 8.68175 292.789 8.66041 292.842 8.66041H296.842C297.642 8.66041 298.341 8.80441 298.938 9.09241C299.546 9.36975 300.015 9.76441 300.346 10.2764C300.677 10.7884 300.842 11.3804 300.842 12.0524V16.4684C300.842 17.1404 300.677 17.7324 300.346 18.2444C300.015 18.7564 299.546 19.1564 298.938 19.4444C298.341 19.7217 297.642 19.8604 296.842 19.8604H292.842ZM294.906 17.8444C294.906 17.8977 294.933 17.9244 294.986 17.9244H296.922C297.413 17.9244 297.807 17.7591 298.106 17.4284C298.415 17.0977 298.575 16.6551 298.586 16.1004V12.4204C298.586 11.8657 298.431 11.4231 298.122 11.0924C297.823 10.7617 297.418 10.5964 296.906 10.5964H294.986C294.933 10.5964 294.906 10.6231 294.906 10.6764V17.8444ZM306.509 20.0364C305.677 20.0364 304.941 19.8657 304.301 19.5244C303.672 19.1831 303.181 18.7084 302.829 18.1004C302.477 17.4817 302.301 16.7724 302.301 15.9724V12.5484C302.301 11.7591 302.477 11.0604 302.829 10.4524C303.181 9.84441 303.672 9.37508 304.301 9.04441C304.941 8.70308 305.677 8.53241 306.509 8.53241C307.352 8.53241 308.088 8.70308 308.717 9.04441C309.357 9.37508 309.853 9.84441 310.205 10.4524C310.557 11.0604 310.733 11.7591 310.733 12.5484V15.9724C310.733 16.7724 310.557 17.4817 310.205 18.1004C309.853 18.7191 309.357 19.1991 308.717 19.5404C308.088 19.8711 307.352 20.0364 306.509 20.0364ZM306.509 18.1004C307.096 18.1004 307.57 17.9137 307.933 17.5404C308.296 17.1671 308.477 16.6711 308.477 16.0524V12.5324C308.477 11.9137 308.296 11.4177 307.933 11.0444C307.581 10.6604 307.106 10.4684 306.509 10.4684C305.922 10.4684 305.448 10.6604 305.085 11.0444C304.733 11.4177 304.557 11.9137 304.557 12.5324V16.0524C304.557 16.6711 304.733 17.1671 305.085 17.5404C305.448 17.9137 305.922 18.1004 306.509 18.1004Z" fill="#01000A"></path></svg>